<svg width="36" height="36" viewBox="0 0 36 36" fill="none" xmlns="http://www.w3.org/2000/svg">
<path d="M18 30.0822C24.6575 30.0822 30.0822 24.6575 30.0822 18C30.0822 14.7748 28.8197 11.7468 26.5414 9.45863C24.2531 7.17041 21.2252 5.91781 18 5.91781C11.3425 5.91781 5.91781 11.3425 5.91781 18C5.91781 24.6575 11.3425 30.0822 18 30.0822ZM12.8712 14.7058C12.4767 15.3173 12.2005 15.9879 12.0427 16.6981H8.61041C8.8274 15.0904 9.45863 13.5715 10.4449 12.2795L12.8712 14.7058ZM16.6981 12.0427C15.9879 12.2005 15.3173 12.4767 14.7058 12.8712L12.2795 10.4449C13.5814 9.45863 15.1003 8.8274 16.6981 8.61041V12.0427ZM12.0427 19.3019C12.2005 20.0121 12.4767 20.6827 12.8712 21.2942L10.4449 23.7205C9.45863 22.4285 8.8274 20.9096 8.61041 19.3019H12.0427ZM16.6981 23.9573V27.3896C15.0904 27.1726 13.5715 26.5414 12.2795 25.5551L14.7058 23.1288C15.3173 23.5233 15.9879 23.7995 16.6981 23.9573ZM18 21.5014C16.0668 21.5014 14.4986 19.9332 14.4986 18C14.4986 16.0668 16.0668 14.4986 18 14.4986C19.9332 14.4986 21.5014 16.0668 21.5014 18C21.5014 19.9332 19.9332 21.5014 18 21.5014ZM23.9573 16.6981C23.7995 15.9879 23.5233 15.3173 23.1288 14.7058L25.5551 12.2795C26.5414 13.5814 27.1726 15.1003 27.3896 16.6981H23.9573ZM23.1288 21.2942C23.5233 20.6827 23.7995 20.0121 23.9573 19.3019H27.3896C27.1726 20.9096 26.5414 22.4285 25.5551 23.7205L23.1288 21.2942ZM19.3019 23.9573C20.0121 23.7995 20.6827 23.5233 21.2942 23.1288L23.7205 25.5551C22.4186 26.5414 20.8997 27.1726 19.3019 27.3896V23.9573ZM19.3019 12.0427V8.61041C20.9096 8.8274 22.4285 9.45863 23.7205 10.4449L21.2942 12.8712C20.6827 12.4767 20.0121 12.2005 19.3019 12.0427Z" fill="#7C3AED"/>
<path d="M34.7967 0H1.20329C0.542466 0 0 0.542466 0 1.21315V34.7868C0 35.4575 0.542466 36 1.20329 36H34.7868C35.4477 36 35.9901 35.4575 35.9901 34.7868V1.21315C35.9901 0.542466 35.4477 0 34.7868 0H34.7967ZM33.5836 2.4263V33.5836H2.41644V2.4263H33.5934H33.5836Z" fill="#7C3AED"/>
<path d="M6.16438 7.89041C7.11764 7.89041 7.89041 7.11764 7.89041 6.16438C7.89041 5.21113 7.11764 4.43836 6.16438 4.43836C5.21113 4.43836 4.43836 5.21113 4.43836 6.16438C4.43836 7.11764 5.21113 7.89041 6.16438 7.89041Z" fill="#7C3AED"/>
<path d="M6.16438 31.5616C7.11764 31.5616 7.89041 30.7889 7.89041 29.8356C7.89041 28.8824 7.11764 28.1096 6.16438 28.1096C5.21113 28.1096 4.43836 28.8824 4.43836 29.8356C4.43836 30.7889 5.21113 31.5616 6.16438 31.5616Z" fill="#7C3AED"/>
<path d="M29.8356 7.89041C30.7889 7.89041 31.5616 7.11764 31.5616 6.16438C31.5616 5.21113 30.7889 4.43836 29.8356 4.43836C28.8824 4.43836 28.1096 5.21113 28.1096 6.16438C28.1096 7.11764 28.8824 7.89041 29.8356 7.89041Z" fill="#7C3AED"/>
<path d="M29.8356 31.5616C30.7889 31.5616 31.5616 30.7889 31.5616 29.8356C31.5616 28.8824 30.7889 28.1096 29.8356 28.1096C28.8824 28.1096 28.1096 28.8824 28.1096 29.8356C28.1096 30.7889 28.8824 31.5616 29.8356 31.5616Z" fill="#7C3AED"/>
</svg>
